<?xml version="1.0" encoding="UTF-8"?>
<svg version="1.1" xmlns="http://www.w3.org/2000/svg" width="2000" height="2000">
<path d="M0 0 C660 0 1320 0 2000 0 C2000 660 2000 1320 2000 2000 C1340 2000 680 2000 0 2000 C0 1340 0 680 0 0 Z " fill="#2D2B28" transform="translate(0,0)"/>
<path d="M0 0 C104.28 0 208.56 0 316 0 C321.48019459 9.74256815 326.86680495 19.42421422 331.94387817 29.36703491 C333.32542609 32.07204115 334.71452376 34.77314827 336.10319519 37.47450256 C336.7939397 38.8182079 337.48438501 40.16206709 338.17451477 41.50608826 C343.44834545 51.77442137 348.83140121 61.98324489 354.30859375 72.14453125 C355.53942859 74.42949034 356.76988366 76.71465403 358 79 C358.31249695 79.58045074 358.6249939 80.16090149 358.94696045 80.75894165 C364.89510368 91.82031779 370.63933552 102.98172891 376.35772705 114.16320801 C380.75428635 122.75534103 385.19252987 131.30900023 389.875 139.75 C395.96529001 150.73056572 401.62750889 161.9265902 407.33148193 173.11071777 C412.10795747 182.47170283 416.8943561 191.81280938 422 201 C428.05447018 211.89452629 433.67019132 223.01021017 439.33203125 234.11181641 C444.10832394 243.47243427 448.89455542 252.81316804 454 262 C460.05447018 272.89452629 465.67019132 284.01021017 471.33203125 295.11181641 C476.10832394 304.47243427 480.89455542 313.81316804 486 323 C492.05447018 333.89452629 497.67019132 345.01021017 503.33203125 356.11181641 C508.10832985 365.47244585 512.8947872 374.81302946 518 384 C524.50246617 395.70704673 530.54127088 407.65392468 536.62109375 419.58398438 C544.01738062 434.09208554 551.55940608 448.51833682 559.29760742 462.84716797 C566.14768164 475.53350935 572.78761759 488.31736081 579.35269165 501.15313721 C584.29149241 510.80380504 589.31983591 520.38739289 594.5703125 529.87329102 C599.63309608 539.05754105 604.41050816 548.38841314 609.19018555 557.72216797 C609.5030249 558.3315773 609.81586426 558.94098663 610.13818359 559.56886292 C610.9937948 561.23620524 611.8469483 562.90480809 612.69995117 564.57348633 C613.78688775 566.88333755 613.78688775 566.88333755 615 568 C615.25056152 567.49364014 615.50112305 566.98728027 615.75927734 566.46557617 C620.73919989 556.41652159 625.7882209 546.41240005 631.03662109 536.50073242 C634.55769187 529.85095429 638.03383496 523.17854828 641.5 516.5 C645.29174375 509.19723998 649.09568697 501.90154654 652.9375 494.625 C656.99622336 486.93619734 661.00269289 479.22089197 665 471.5 C669.4103054 462.98171566 673.84033475 454.47485107 678.31689453 445.99121094 C683.06495657 436.99020045 687.76443537 427.96388973 692.46777344 418.93945312 C694.97707908 414.12555256 697.48863837 409.3128282 700 404.5 C701.00001113 402.58333914 702.00001112 400.66667247 703 398.75 C705 394.91666667 707 391.08333333 709 387.25 C709.49516113 386.30092773 709.99032227 385.35185547 710.50048828 384.37402344 C711.49881616 382.46058875 712.49718844 380.54717723 713.49560547 378.63378906 C716.02155651 373.79286364 718.54669444 368.95151709 721.0703125 364.109375 C725.65518153 355.31403136 730.24613422 346.52227902 734.875 337.75 C738.95363964 330.01907096 742.98115539 322.26216051 747 314.5 C751.41032197 305.98172415 755.84033468 297.4748512 760.31689453 288.99121094 C765.06495657 279.99020045 769.76443537 270.96388973 774.46777344 261.93945312 C777.47503782 256.17025887 780.48535513 250.40265711 783.49511719 244.63476562 C786.02120834 239.79350287 788.54652626 234.95183977 791.0703125 230.109375 C795.65518153 221.31403136 800.24613422 212.52227902 804.875 203.75 C809.57119178 194.84852094 814.19826204 185.91162227 818.82543945 176.97412109 C822.60328339 169.68141841 826.40754559 162.40358916 830.2421875 155.140625 C833.68828148 148.60763902 837.09625814 142.05513565 840.5 135.5 C844.29190209 128.19732148 848.09568639 120.90154763 851.9375 113.625 C855.99622336 105.93619734 860.00269289 98.22089197 864 90.5 C868.4103054 81.98171566 872.84033475 73.47485107 877.31689453 64.99121094 C880.51972605 58.91952953 883.70078041 52.8366847 886.875 46.75 C887.37427002 45.79343506 887.87354004 44.83687012 888.38793945 43.85131836 C890.99489461 38.85441041 893.59446828 33.85382748 896.18359375 28.84765625 C896.70775879 27.83670898 897.23192383 26.82576172 897.77197266 25.78417969 C898.75984053 23.878581 899.7454017 21.9717837 900.72802734 20.06347656 C901.62246705 18.34017469 902.53317896 16.62517699 903.46334261 14.920892 C904.50055625 12.94934711 905.46608237 10.93864768 906.36180741 8.89892268 C910.32352718 0.67902223 910.32352718 0.67902223 914.71571434 -1.0999465 C918.14138891 -1.51874711 921.38819453 -1.54279168 924.83836365 -1.4430542 C926.13474717 -1.4533073 927.43113069 -1.4635604 928.76679856 -1.47412419 C932.35550182 -1.50090318 935.93989084 -1.45306244 939.5280441 -1.39278746 C943.40048176 -1.34088795 947.2726828 -1.35850741 951.14537048 -1.36761475 C957.85150616 -1.37390253 964.5562392 -1.33630575 971.26202202 -1.26876068 C980.95716216 -1.17116849 990.65162517 -1.13997713 1000.34720326 -1.12490478 C1016.07780048 -1.0986512 1031.80765032 -1.01882071 1047.5378418 -0.90527344 C1062.81677515 -0.79509833 1078.09550539 -0.71017097 1093.37475586 -0.65917969 C1094.3168074 -0.65602701 1095.25885894 -0.65287432 1096.22945749 -0.64962611 C1100.95552829 -0.63396548 1105.68160052 -0.61880102 1110.40767372 -0.60388327 C1149.60563907 -0.47951385 1188.80277018 -0.26818459 1228 0 C1226.71642313 2.57126528 1225.43240494 5.14230857 1224.14813232 7.71322632 C1223.78642881 8.43790572 1223.4247253 9.16258512 1223.05206108 9.90922451 C1220.65363384 14.70940121 1218.22207315 19.48832673 1215.703125 24.2265625 C1215.16982323 25.23478058 1215.16982323 25.23478058 1214.62574768 26.2633667 C1213.50255644 28.38500973 1212.37648622 30.50510488 1211.25 32.625 C1210.85815521 33.36389465 1210.46631042 34.10278931 1210.06259155 34.86407471 C1204.90322134 44.5929786 1199.69633638 54.29369776 1194.40063477 63.94921875 C1190.45244086 71.15113597 1186.56199217 78.3832039 1182.6875 85.625 C1182.37286804 86.21301392 1182.05823608 86.80102783 1181.73406982 87.40686035 C1180.13141306 90.40245943 1178.52939169 93.39839769 1176.92773438 96.39453125 C1167.22698788 114.54020068 1157.49534398 132.66914733 1147.73388672 150.78222656 C1144.82129735 156.18745437 1141.9107577 161.59378568 1139 167 C1137.83334304 169.16667189 1136.66667637 171.33333856 1135.5 173.5 C1134.9225 174.5725 1134.345 175.645 1133.75 176.75 C1114.49999998 212.50000003 1114.49999998 212.50000003 1112.75024414 215.74951172 C1111.58272485 217.91778509 1110.41524443 220.08607938 1109.24780273 222.25439453 C1106.34449829 227.64665028 1103.4405355 233.03854935 1100.53515625 238.4296875 C1094.5095334 249.61237496 1088.49537161 260.80106183 1082.5 272 C1075.93060517 284.27117371 1069.33721308 296.52928416 1062.73388672 308.78222656 C1059.82129735 314.18745437 1056.9107577 319.59378568 1054 325 C1052.83334304 327.16667189 1051.66667637 329.33333856 1050.5 331.5 C1049.9225 332.5725 1049.345 333.645 1048.75 334.75 C1029.49999999 370.50000001 1029.49999999 370.50000001 1027.75024414 373.74951172 C1026.58272485 375.91778509 1025.41524443 378.08607938 1024.24780273 380.25439453 C1021.34449829 385.64665028 1018.4405355 391.03854935 1015.53515625 396.4296875 C1009.5095334 407.61237496 1003.49537161 418.80106183 997.5 430 C990.93060517 442.27117371 984.33721308 454.52928416 977.73388672 466.78222656 C974.82129735 472.18745437 971.9107577 477.59378568 969 483 C967.83334304 485.16667189 966.66667637 487.33333856 965.5 489.5 C964.9225 490.5725 964.345 491.645 963.75 492.75 C944.5 528.5 944.5 528.5 942.75024414 531.74951172 C941.58272485 533.91778509 940.41524443 536.08607938 939.24780273 538.25439453 C936.34449829 543.64665028 933.4405355 549.03854935 930.53515625 554.4296875 C924.5095334 565.61237496 918.49537161 576.80106183 912.5 588 C905.93060517 600.27117371 899.33721308 612.52928416 892.73388672 624.78222656 C889.82129735 630.18745437 886.9107577 635.59378568 884 641 C882.83334304 643.16667189 881.66667637 645.33333856 880.5 647.5 C879.9225 648.5725 879.345 649.645 878.75 650.75 C873.50000002 660.49999997 873.50000002 660.49999997 871.75024414 663.74951172 C870.58272485 665.91778509 869.41524443 668.08607938 868.24780273 670.25439453 C865.34449829 675.64665028 862.4405355 681.03854935 859.53515625 686.4296875 C853.5095334 697.61237496 847.49537161 708.80106183 841.5 720 C834.93060517 732.27117371 828.33721308 744.52928416 821.73388672 756.78222656 C818.82129735 762.18745437 815.9107577 767.59378568 813 773 C811.83334304 775.16667189 810.66667637 777.33333856 809.5 779.5 C808.9225 780.5725 808.345 781.645 807.75 782.75 C788.49999999 818.50000002 788.49999999 818.50000002 786.75024414 821.74951172 C785.58272485 823.91778509 784.41524443 826.08607938 783.24780273 828.25439453 C780.34449829 833.64665028 777.4405355 839.03854935 774.53515625 844.4296875 C768.5095334 855.61237496 762.49537161 866.80106183 756.5 878 C749.93060517 890.27117371 743.33721308 902.52928416 736.73388672 914.78222656 C733.82129735 920.18745437 730.9107577 925.59378568 728 931 C726.83334304 933.16667189 725.66667637 935.33333856 724.5 937.5 C723.9225 938.5725 723.345 939.645 722.75 940.75 C703.5 976.5 703.5 976.5 701.75024414 979.74951172 C700.58272485 981.91778509 699.41524443 984.08607938 698.24780273 986.25439453 C695.34449829 991.64665028 692.4405355 997.03854935 689.53515625 1002.4296875 C683.5095334 1013.61237496 677.49537161 1024.80106183 671.5 1036 C664.93060517 1048.27117371 658.33721308 1060.52928416 651.73388672 1072.78222656 C648.82129735 1078.18745437 645.91075749 1083.59378556 643 1089 C641.84245763 1091.14974481 640.68490553 1093.29948439 639.52734375 1095.44921875 C638.95097168 1096.51962402 638.37459961 1097.5900293 637.78076172 1098.69287109 C635.93847656 1102.11425781 634.09619141 1105.53564453 632.25390625 1108.95703125 C631.63580078 1110.10494141 631.01769531 1111.25285156 630.38085938 1112.43554688 C629.21419271 1114.60221354 628.04752604 1116.76888021 626.88085938 1118.93554688 C626.07551758 1120.43118164 626.07551758 1120.43118164 625.25390625 1121.95703125 C621.8359375 1128.3046875 618.41796875 1134.65234375 615 1141 C611.1992514 1139.7330838 611.04401433 1138.71316155 609.28515625 1135.20703125 C608.77033691 1134.19600342 608.25551758 1133.18497559 607.72509766 1132.14331055 C607.17644043 1131.04414307 606.6277832 1129.94497559 606.0625 1128.8125 C604.88597007 1126.50165854 603.70755003 1124.19177852 602.52734375 1121.8828125 C601.93421387 1120.71911133 601.34108398 1119.55541016 600.72998047 1118.35644531 C598.2731424 1113.58977727 595.71142473 1108.88478104 593.125 1104.1875 C588.59790789 1095.94199375 584.1243065 1087.66944047 579.6875 1079.375 C579.21623184 1078.49420273 579.21623184 1078.49420273 578.73544312 1077.59561157 C577.13233438 1074.59918541 575.5298323 1071.60243547 573.92773438 1068.60546875 C570.76729176 1062.69372299 567.60258774 1056.78425991 564.4375 1050.875 C563.50695801 1049.13766602 563.50695801 1049.13766602 562.55761719 1047.36523438 C556.05719196 1035.23337026 549.52995078 1023.11598999 543 1011 C535.50114436 997.08625656 528.01346857 983.16670734 520.55352783 969.23205566 C513.72423754 956.47623029 506.86457243 943.73686335 500 931 C492.50114436 917.08625656 485.01346857 903.16670734 477.55352783 889.23205566 C471.29931678 877.55036977 465.0200883 865.88226822 458.73388672 854.21777344 C455.23677784 847.7277854 451.74243922 841.23630532 448.24755859 834.74511719 C445.34431627 829.35303457 442.44044921 823.96129053 439.53515625 818.5703125 C433.19244811 806.79916046 426.86439133 795.02031078 420.55352783 783.23205566 C413.72423754 770.47623029 406.86457243 757.73686335 400 745 C392.50114436 731.08625656 385.01346857 717.16670734 377.55352783 703.23205566 C370.72423754 690.47623029 363.86457243 677.73686335 357 665 C349.50114436 651.08625656 342.01346857 637.16670734 334.55352783 623.23205566 C327.72423754 610.47623029 320.86457243 597.73686335 314 585 C306.50114436 571.08625656 299.01346857 557.16670734 291.55352783 543.23205566 C284.72423754 530.47623029 277.86457243 517.73686335 271 505 C263.50114436 491.08625656 256.01346857 477.16670734 248.55352783 463.23205566 C241.72423754 450.47623029 234.86457243 437.73686335 228 425 C220.50114436 411.08625656 213.01346857 397.16670734 205.55352783 383.23205566 C199.29931678 371.55036977 193.0200883 359.88226822 186.73388672 348.21777344 C183.23677784 341.7277854 179.74243922 335.23630532 176.24755859 328.74511719 C173.34431627 323.35303457 170.44044921 317.96129053 167.53515625 312.5703125 C161.19244811 300.79916046 154.86439133 289.02031078 148.55352783 277.23205566 C141.72423754 264.47623029 134.86457243 251.73686335 128 239 C120.50114436 225.08625656 113.01346857 211.16670734 105.55352783 197.23205566 C98.72423754 184.47623029 91.86457243 171.73686335 85 159 C77.50114436 145.08625656 70.01346857 131.16670734 62.55352783 117.23205566 C55.72423754 104.47623029 48.86457243 91.73686335 42 79 C29.45981162 55.73232128 29.45981162 55.73232128 24.2421875 45.984375 C23.92811951 45.39762497 23.61405151 44.81087494 23.29046631 44.2063446 C21.71598087 41.26451233 20.14197085 38.32242689 18.56835938 35.38012695 C15.45044756 29.55535295 12.32072859 23.73743464 9.1640625 17.93359375 C8.55763916 16.81807129 7.95121582 15.70254883 7.32641602 14.55322266 C6.17257994 12.43335829 5.01689245 10.31450034 3.85913086 8.19677734 C3.35003174 7.26172363 2.84093262 6.32666992 2.31640625 5.36328125 C1.86724854 4.54126221 1.41809082 3.71924316 0.95532227 2.87231445 C0 1 0 1 0 0 Z " fill="#F2EEE7" transform="translate(386,521)"/>
</svg>
